<?xml version="1.0" encoding="UTF-8"?>
<svg xmlns="http://www.w3.org/2000/svg" xmlns:xlink="http://www.w3.org/1999/xlink" width="396pt" height="252pt" viewBox="0 0 396 252">
<defs>
<g>
<g id="glyph-0-0">
<path d="M 0.570312 -4.839844 C 0.570312 -6.003906 0.6875 -6.9375 0.925781 -7.644531 C 1.167969 -8.351562 1.519531 -8.898438 1.992188 -9.28125 C 2.464844 -9.664062 3.054688 -9.855469 3.769531 -9.855469 C 4.296875 -9.855469 4.757812 -9.75 5.15625 -9.539062 C 5.554688 -9.328125 5.882812 -9.019531 6.140625 -8.621094 C 6.398438 -8.222656 6.601562 -7.734375 6.75 -7.160156 C 6.898438 -6.589844 6.972656 -5.816406 6.972656 -4.839844 C 6.972656 -3.691406 6.851562 -2.761719 6.617188 -2.050781 C 6.378906 -1.34375 6.027344 -0.796875 5.554688 -0.410156 C 5.082031 -0.0273438 4.488281 0.167969 3.769531 0.167969 C 2.824219 0.167969 2.082031 -0.171875 1.539062 -0.851562 C 0.894531 -1.667969 0.570312 -2.996094 0.570312 -4.839844 M 1.808594 -4.839844 C 1.808594 -3.230469 1.996094 -2.15625 2.375 -1.625 C 2.75 -1.089844 3.214844 -0.824219 3.769531 -0.824219 C 4.324219 -0.824219 4.789062 -1.089844 5.167969 -1.628906 C 5.542969 -2.164062 5.730469 -3.234375 5.730469 -4.839844 C 5.730469 -6.457031 5.542969 -7.53125 5.167969 -8.0625 C 4.789062 -8.59375 4.320312 -8.859375 3.757812 -8.859375 C 3.203125 -8.859375 2.761719 -8.625 2.429688 -8.15625 C 2.015625 -7.558594 1.808594 -6.453125 1.808594 -4.839844 Z M 1.808594 -4.839844 "/>
</g>
<g id="glyph-0-1">
<path d="M 1.246094 0 L 1.246094 -1.371094 L 2.617188 -1.371094 L 2.617188 0 Z M 1.246094 0 "/>
</g>
<g id="glyph-0-2">
<path d="M 5.109375 0 L 3.902344 0 L 3.902344 -7.679688 C 3.613281 -7.402344 3.234375 -7.128906 2.761719 -6.851562 C 2.292969 -6.574219 1.867188 -6.367188 1.492188 -6.226562 L 1.492188 -7.394531 C 2.167969 -7.710938 2.757812 -8.09375 3.261719 -8.542969 C 3.765625 -8.996094 4.121094 -9.433594 4.332031 -9.855469 L 5.109375 -9.855469 Z M 5.109375 0 "/>
</g>
<g id="glyph-0-3">
<path d="M 0.570312 -2.570312 L 1.835938 -2.679688 C 1.929688 -2.0625 2.144531 -1.597656 2.488281 -1.289062 C 2.828125 -0.980469 3.242188 -0.824219 3.722656 -0.824219 C 4.304688 -0.824219 4.792969 -1.042969 5.195312 -1.480469 C 5.597656 -1.917969 5.800781 -2.496094 5.800781 -3.222656 C 5.800781 -3.910156 5.605469 -4.449219 5.21875 -4.847656 C 4.832031 -5.246094 4.328125 -5.445312 3.703125 -5.445312 C 3.316406 -5.445312 2.964844 -5.355469 2.652344 -5.179688 C 2.339844 -5.003906 2.09375 -4.773438 1.914062 -4.492188 L 0.785156 -4.640625 L 1.734375 -9.683594 L 6.617188 -9.683594 L 6.617188 -8.53125 L 2.699219 -8.53125 L 2.167969 -5.894531 C 2.757812 -6.304688 3.378906 -6.507812 4.023438 -6.507812 C 4.882812 -6.507812 5.605469 -6.210938 6.195312 -5.617188 C 6.785156 -5.023438 7.078125 -4.261719 7.078125 -3.328125 C 7.078125 -2.441406 6.820312 -1.671875 6.300781 -1.023438 C 5.671875 -0.230469 4.8125 0.167969 3.722656 0.167969 C 2.832031 0.167969 2.101562 -0.0820312 1.535156 -0.582031 C 0.972656 -1.082031 0.648438 -1.746094 0.570312 -2.570312 Z M 0.570312 -2.570312 "/>
</g>
<g id="glyph-0-4">
<path d="M 6.902344 -1.160156 L 6.902344 0 L 0.414062 0 C 0.40625 -0.289062 0.453125 -0.570312 0.554688 -0.835938 C 0.722656 -1.277344 0.984375 -1.714844 1.347656 -2.144531 C 1.714844 -2.570312 2.238281 -3.066406 2.925781 -3.628906 C 3.992188 -4.503906 4.714844 -5.199219 5.089844 -5.707031 C 5.464844 -6.21875 5.652344 -6.703125 5.652344 -7.160156 C 5.652344 -7.636719 5.480469 -8.039062 5.140625 -8.367188 C 4.796875 -8.695312 4.351562 -8.859375 3.804688 -8.859375 C 3.222656 -8.859375 2.757812 -8.683594 2.410156 -8.335938 C 2.0625 -7.988281 1.886719 -7.507812 1.882812 -6.890625 L 0.644531 -7.019531 C 0.726562 -7.941406 1.046875 -8.644531 1.601562 -9.128906 C 2.152344 -9.613281 2.898438 -9.855469 3.832031 -9.855469 C 4.773438 -9.855469 5.519531 -9.597656 6.066406 -9.074219 C 6.617188 -8.550781 6.890625 -7.902344 6.890625 -7.132812 C 6.890625 -6.738281 6.808594 -6.351562 6.648438 -5.972656 C 6.488281 -5.59375 6.222656 -5.195312 5.847656 -4.773438 C 5.476562 -4.355469 4.855469 -3.777344 3.992188 -3.046875 C 3.269531 -2.441406 2.804688 -2.027344 2.597656 -1.8125 C 2.394531 -1.59375 2.222656 -1.378906 2.089844 -1.160156 Z M 6.902344 -1.160156 "/>
</g>
<g id="glyph-0-5">
<path d="M 0.574219 -2.589844 L 1.78125 -2.753906 C 1.917969 -2.070312 2.15625 -1.578125 2.488281 -1.277344 C 2.820312 -0.972656 3.226562 -0.824219 3.703125 -0.824219 C 4.269531 -0.824219 4.75 -1.019531 5.140625 -1.414062 C 5.53125 -1.804688 5.726562 -2.292969 5.726562 -2.871094 C 5.726562 -3.425781 5.542969 -3.882812 5.183594 -4.242188 C 4.820312 -4.601562 4.363281 -4.78125 3.804688 -4.78125 C 3.574219 -4.78125 3.292969 -4.738281 2.953125 -4.648438 L 3.085938 -5.707031 C 3.167969 -5.695312 3.230469 -5.691406 3.28125 -5.691406 C 3.792969 -5.691406 4.257812 -5.824219 4.667969 -6.09375 C 5.078125 -6.363281 5.285156 -6.773438 5.285156 -7.332031 C 5.285156 -7.773438 5.132812 -8.140625 4.835938 -8.429688 C 4.535156 -8.722656 4.148438 -8.867188 3.675781 -8.867188 C 3.207031 -8.867188 2.816406 -8.71875 2.503906 -8.425781 C 2.191406 -8.128906 1.992188 -7.6875 1.902344 -7.097656 L 0.695312 -7.3125 C 0.84375 -8.121094 1.179688 -8.746094 1.699219 -9.191406 C 2.222656 -9.636719 2.871094 -9.855469 3.648438 -9.855469 C 4.183594 -9.855469 4.679688 -9.742188 5.128906 -9.511719 C 5.582031 -9.28125 5.925781 -8.96875 6.164062 -8.570312 C 6.402344 -8.175781 6.523438 -7.753906 6.523438 -7.304688 C 6.523438 -6.882812 6.410156 -6.496094 6.179688 -6.148438 C 5.953125 -5.800781 5.617188 -5.523438 5.167969 -5.316406 C 5.75 -5.183594 6.199219 -4.90625 6.523438 -4.484375 C 6.84375 -4.0625 7.003906 -3.535156 7.003906 -2.898438 C 7.003906 -2.042969 6.691406 -1.316406 6.066406 -0.71875 C 5.441406 -0.125 4.652344 0.175781 3.695312 0.175781 C 2.835938 0.175781 2.121094 -0.0820312 1.550781 -0.597656 C 0.980469 -1.109375 0.65625 -1.773438 0.574219 -2.589844 Z M 0.574219 -2.589844 "/>
</g>
<g id="glyph-1-0">
<path d="M 1.265625 0 L 1.265625 -11.453125 L 9.546875 -11.453125 L 9.546875 -10.101562 L 2.78125 -10.101562 L 2.78125 -6.59375 L 9.117188 -6.59375 L 9.117188 -5.25 L 2.78125 -5.25 L 2.78125 -1.351562 L 9.8125 -1.351562 L 9.8125 0 Z M 1.265625 0 "/>
</g>
<g id="glyph-1-1">
<path d="M 1.054688 3.179688 L 1.054688 -8.296875 L 2.335938 -8.296875 L 2.335938 -7.21875 C 2.636719 -7.640625 2.980469 -7.957031 3.359375 -8.167969 C 3.738281 -8.378906 4.199219 -8.484375 4.742188 -8.484375 C 5.449219 -8.484375 6.074219 -8.300781 6.617188 -7.9375 C 7.160156 -7.574219 7.566406 -7.058594 7.84375 -6.394531 C 8.121094 -5.730469 8.257812 -5.003906 8.257812 -4.210938 C 8.257812 -3.363281 8.105469 -2.597656 7.800781 -1.917969 C 7.496094 -1.238281 7.054688 -0.71875 6.472656 -0.355469 C 5.890625 0.0078125 5.28125 0.1875 4.640625 0.1875 C 4.171875 0.1875 3.75 0.0898438 3.378906 -0.109375 C 3.007812 -0.308594 2.699219 -0.558594 2.460938 -0.859375 L 2.460938 3.179688 L 1.054688 3.179688 M 2.328125 -4.101562 C 2.328125 -3.035156 2.542969 -2.246094 2.976562 -1.734375 C 3.410156 -1.222656 3.933594 -0.96875 4.546875 -0.96875 C 5.171875 -0.96875 5.707031 -1.234375 6.152344 -1.761719 C 6.597656 -2.289062 6.820312 -3.109375 6.820312 -4.21875 C 6.820312 -5.277344 6.601562 -6.066406 6.167969 -6.59375 C 5.734375 -7.121094 5.214844 -7.382812 4.609375 -7.382812 C 4.011719 -7.382812 3.480469 -7.101562 3.019531 -6.542969 C 2.558594 -5.984375 2.328125 -5.167969 2.328125 -4.101562 Z M 2.328125 -4.101562 "/>
</g>
<g id="glyph-1-2">
<path d="M 1.0625 -9.835938 L 1.0625 -11.453125 L 2.46875 -11.453125 L 2.46875 -9.835938 L 1.0625 -9.835938 M 1.0625 0 L 1.0625 -8.296875 L 2.46875 -8.296875 L 2.46875 0 Z M 1.0625 0 "/>
</g>
<g id="glyph-1-3">
<path d="M 6.4375 0 L 6.4375 -1.046875 C 5.910156 -0.222656 5.136719 0.1875 4.117188 0.1875 C 3.457031 0.1875 2.847656 0.00390625 2.292969 -0.359375 C 1.738281 -0.722656 1.308594 -1.234375 1.003906 -1.886719 C 0.699219 -2.539062 0.546875 -3.292969 0.546875 -4.140625 C 0.546875 -4.96875 0.683594 -5.71875 0.960938 -6.394531 C 1.238281 -7.070312 1.652344 -7.585938 2.203125 -7.945312 C 2.753906 -8.304688 3.371094 -8.484375 4.054688 -8.484375 C 4.554688 -8.484375 5 -8.378906 5.390625 -8.167969 C 5.78125 -7.957031 6.097656 -7.683594 6.34375 -7.34375 L 6.34375 -11.453125 L 7.742188 -11.453125 L 7.742188 0 L 6.4375 0 M 1.992188 -4.140625 C 1.992188 -3.078125 2.214844 -2.285156 2.664062 -1.757812 C 3.113281 -1.230469 3.640625 -0.96875 4.25 -0.96875 C 4.863281 -0.96875 5.386719 -1.21875 5.816406 -1.722656 C 6.246094 -2.226562 6.460938 -2.992188 6.460938 -4.023438 C 6.460938 -5.160156 6.242188 -5.992188 5.804688 -6.523438 C 5.367188 -7.054688 4.828125 -7.320312 4.1875 -7.320312 C 3.5625 -7.320312 3.039062 -7.066406 2.621094 -6.554688 C 2.203125 -6.042969 1.992188 -5.238281 1.992188 -4.140625 Z M 1.992188 -4.140625 "/>
</g>
<g id="glyph-1-4">
<path d="M 6.734375 -2.671875 L 8.1875 -2.492188 C 7.957031 -1.644531 7.535156 -0.984375 6.914062 -0.515625 C 6.292969 -0.046875 5.503906 0.1875 4.539062 0.1875 C 3.324219 0.1875 2.363281 -0.1875 1.652344 -0.933594 C 0.941406 -1.679688 0.585938 -2.730469 0.585938 -4.078125 C 0.585938 -5.472656 0.945312 -6.558594 1.664062 -7.328125 C 2.382812 -8.097656 3.316406 -8.484375 4.460938 -8.484375 C 5.570312 -8.484375 6.476562 -8.105469 7.179688 -7.351562 C 7.882812 -6.597656 8.234375 -5.535156 8.234375 -4.164062 C 8.234375 -4.082031 8.230469 -3.957031 8.226562 -3.789062 L 2.039062 -3.789062 C 2.089844 -2.878906 2.347656 -2.179688 2.8125 -1.695312 C 3.277344 -1.210938 3.855469 -0.96875 4.546875 -0.96875 C 5.0625 -0.96875 5.503906 -1.105469 5.867188 -1.375 C 6.230469 -1.644531 6.519531 -2.078125 6.734375 -2.671875 M 2.117188 -4.945312 L 6.75 -4.945312 C 6.6875 -5.644531 6.511719 -6.167969 6.21875 -6.515625 C 5.769531 -7.058594 5.191406 -7.328125 4.476562 -7.328125 C 3.832031 -7.328125 3.289062 -7.113281 2.847656 -6.679688 C 2.40625 -6.246094 2.164062 -5.667969 2.117188 -4.945312 Z M 2.117188 -4.945312 "/>
</g>
<g id="glyph-1-5">
<path d="M 1.054688 0 L 1.054688 -8.296875 L 2.3125 -8.296875 L 2.3125 -7.132812 C 2.574219 -7.539062 2.917969 -7.867188 3.351562 -8.113281 C 3.785156 -8.359375 4.277344 -8.484375 4.828125 -8.484375 C 5.441406 -8.484375 5.945312 -8.355469 6.339844 -8.101562 C 6.734375 -7.847656 7.011719 -7.488281 7.171875 -7.03125 C 7.828125 -8 8.683594 -8.484375 9.734375 -8.484375 C 10.558594 -8.484375 11.191406 -8.257812 11.632812 -7.800781 C 12.074219 -7.34375 12.296875 -6.644531 12.296875 -5.695312 L 12.296875 0 L 10.898438 0 L 10.898438 -5.226562 C 10.898438 -5.789062 10.851562 -6.195312 10.761719 -6.441406 C 10.671875 -6.6875 10.503906 -6.886719 10.265625 -7.039062 C 10.027344 -7.191406 9.746094 -7.265625 9.421875 -7.265625 C 8.839844 -7.265625 8.355469 -7.070312 7.96875 -6.683594 C 7.582031 -6.296875 7.390625 -5.675781 7.390625 -4.820312 L 7.390625 0 L 5.984375 0 L 5.984375 -5.390625 C 5.984375 -6.015625 5.871094 -6.484375 5.640625 -6.796875 C 5.410156 -7.109375 5.035156 -7.265625 4.515625 -7.265625 C 4.121094 -7.265625 3.753906 -7.160156 3.417969 -6.953125 C 3.082031 -6.746094 2.839844 -6.441406 2.6875 -6.039062 C 2.535156 -5.636719 2.460938 -5.058594 2.460938 -4.304688 L 2.460938 0 Z M 1.054688 0 "/>
</g>
<g id="glyph-1-6">
<path d="M 6.46875 -3.039062 L 7.851562 -2.859375 C 7.699219 -1.90625 7.3125 -1.160156 6.691406 -0.621094 C 6.070312 -0.0820312 5.304688 0.1875 4.398438 0.1875 C 3.261719 0.1875 2.351562 -0.183594 1.660156 -0.925781 C 0.96875 -1.667969 0.625 -2.730469 0.625 -4.117188 C 0.625 -5.011719 0.773438 -5.796875 1.070312 -6.46875 C 1.367188 -7.140625 1.820312 -7.644531 2.425781 -7.980469 C 3.03125 -8.316406 3.691406 -8.484375 4.40625 -8.484375 C 5.308594 -8.484375 6.042969 -8.257812 6.617188 -7.800781 C 7.191406 -7.34375 7.558594 -6.699219 7.71875 -5.859375 L 6.351562 -5.648438 C 6.222656 -6.207031 5.992188 -6.625 5.660156 -6.90625 C 5.328125 -7.1875 4.929688 -7.328125 4.460938 -7.328125 C 3.753906 -7.328125 3.175781 -7.074219 2.734375 -6.566406 C 2.292969 -6.058594 2.070312 -5.253906 2.070312 -4.15625 C 2.070312 -3.042969 2.285156 -2.230469 2.710938 -1.726562 C 3.136719 -1.222656 3.695312 -0.96875 4.382812 -0.96875 C 4.933594 -0.96875 5.394531 -1.136719 5.765625 -1.476562 C 6.136719 -1.816406 6.371094 -2.335938 6.46875 -3.039062 Z M 6.46875 -3.039062 "/>
</g>
<g id="glyph-2-0">
<path d="M 0 -1.039062 L -8.296875 -1.039062 L -8.296875 -2.304688 L -7.039062 -2.304688 C -7.628906 -2.628906 -8.015625 -2.925781 -8.203125 -3.199219 C -8.390625 -3.472656 -8.484375 -3.773438 -8.484375 -4.101562 C -8.484375 -4.574219 -8.332031 -5.058594 -8.03125 -5.546875 L -6.726562 -5.0625 C -6.929688 -4.71875 -7.03125 -4.375 -7.03125 -4.03125 C -7.03125 -3.722656 -6.9375 -3.449219 -6.753906 -3.203125 C -6.570312 -2.957031 -6.3125 -2.785156 -5.984375 -2.679688 C -5.484375 -2.523438 -4.9375 -2.445312 -4.34375 -2.445312 L 0 -2.445312 Z M 0 -1.039062 "/>
</g>
<g id="glyph-2-1">
<path d="M 3.195312 -0.992188 L 1.875 -0.835938 C 1.957031 -1.144531 2 -1.410156 2 -1.640625 C 2 -1.953125 1.949219 -2.203125 1.84375 -2.390625 C 1.738281 -2.578125 1.59375 -2.730469 1.40625 -2.851562 C 1.265625 -2.941406 0.917969 -3.082031 0.359375 -3.28125 C 0.28125 -3.308594 0.167969 -3.347656 0.015625 -3.40625 L -8.296875 -0.257812 L -8.296875 -1.773438 L -3.492188 -3.5 C -2.882812 -3.722656 -2.242188 -3.925781 -1.570312 -4.101562 C -2.214844 -4.261719 -2.847656 -4.457031 -3.460938 -4.679688 L -8.296875 -6.453125 L -8.296875 -7.859375 L 0.140625 -4.703125 C 1.050781 -4.363281 1.679688 -4.101562 2.023438 -3.914062 C 2.488281 -3.664062 2.828125 -3.378906 3.042969 -3.054688 C 3.257812 -2.730469 3.367188 -2.347656 3.367188 -1.898438 C 3.367188 -1.628906 3.308594 -1.324219 3.195312 -0.992188 Z M 3.195312 -0.992188 "/>
</g>
<g id="glyph-2-2">
<path d="M -5.648438 -0.664062 C -7.003906 -0.664062 -8.09375 -0.804688 -8.917969 -1.082031 C -9.742188 -1.359375 -10.378906 -1.773438 -10.828125 -2.324219 C -11.277344 -2.875 -11.5 -3.566406 -11.5 -4.398438 C -11.5 -5.011719 -11.375 -5.550781 -11.128906 -6.015625 C -10.882812 -6.480469 -10.523438 -6.863281 -10.058594 -7.164062 C -9.59375 -7.464844 -9.023438 -7.703125 -8.355469 -7.875 C -7.6875 -8.046875 -6.785156 -8.132812 -5.648438 -8.132812 C -4.304688 -8.132812 -3.21875 -7.996094 -2.394531 -7.71875 C -1.570312 -7.441406 -0.929688 -7.03125 -0.480469 -6.480469 C -0.03125 -5.929688 0.195312 -5.238281 0.195312 -4.398438 C 0.195312 -3.292969 -0.199219 -2.425781 -0.992188 -1.796875 C -1.945312 -1.042969 -3.496094 -0.664062 -5.648438 -0.664062 M -5.648438 -2.109375 C -3.769531 -2.109375 -2.515625 -2.328125 -1.894531 -2.769531 C -1.273438 -3.210938 -0.960938 -3.753906 -0.960938 -4.398438 C -0.960938 -5.042969 -1.273438 -5.585938 -1.898438 -6.027344 C -2.523438 -6.46875 -3.773438 -6.6875 -5.648438 -6.6875 C -7.535156 -6.6875 -8.785156 -6.46875 -9.40625 -6.027344 C -10.027344 -5.585938 -10.335938 -5.039062 -10.335938 -4.382812 C -10.335938 -3.738281 -10.0625 -3.222656 -9.515625 -2.835938 C -8.816406 -2.351562 -7.527344 -2.109375 -5.648438 -2.109375 Z M -5.648438 -2.109375 "/>
</g>
</g>
<clipPath id="clip-0">
<path clip-rule="nonzero" d="M 70.839844 15.941406 L 193.84375 15.941406 L 193.84375 193.152344 L 70.839844 193.152344 Z M 70.839844 15.941406 "/>
</clipPath>
<clipPath id="clip-1">
<path clip-rule="nonzero" d="M 257.054688 15.941406 L 380.058594 15.941406 L 380.058594 193.152344 L 257.054688 193.152344 Z M 257.054688 15.941406 "/>
</clipPath>
</defs>
<rect x="-39.6" y="-25.2" width="475.2" height="302.4" fill="rgb(100%, 100%, 100%)" fill-opacity="1"/>
<rect x="-39.6" y="-25.2" width="475.2" height="302.4" fill="rgb(100%, 100%, 100%)" fill-opacity="1"/>
<path fill="none" stroke-width="1.551969" stroke-linecap="round" stroke-linejoin="round" stroke="rgb(100%, 100%, 100%)" stroke-opacity="1" stroke-miterlimit="10" d="M 0 252 L 396 252 L 396 0 L 0 0 Z M 0 252 "/>
<g clip-path="url(#clip-0)">
<path fill-rule="nonzero" fill="rgb(96.078431%, 96.078431%, 96.078431%)" fill-opacity="1" d="M 70.839844 193.152344 L 193.84375 193.152344 L 193.84375 15.941406 L 70.839844 15.941406 Z M 70.839844 193.152344 "/>
</g>
<path fill-rule="nonzero" fill="rgb(0%, 0%, 0%)" fill-opacity="1" stroke-width="1.03078" stroke-linecap="round" stroke-linejoin="round" stroke="rgb(0%, 0%, 0%)" stroke-opacity="1" stroke-miterlimit="10" d="M 97.617188 116.949219 C 97.617188 121.902344 90.183594 121.902344 90.183594 116.949219 C 90.183594 111.992188 97.617188 111.992188 97.617188 116.949219 "/>
<path fill-rule="nonzero" fill="rgb(0%, 0%, 0%)" fill-opacity="1" stroke-width="1.03078" stroke-linecap="round" stroke-linejoin="round" stroke="rgb(0%, 0%, 0%)" stroke-opacity="1" stroke-miterlimit="10" d="M 136.058594 48.519531 C 136.058594 53.476562 128.625 53.476562 128.625 48.519531 C 128.625 43.566406 136.058594 43.566406 136.058594 48.519531 "/>
<path fill-rule="nonzero" fill="rgb(0%, 0%, 0%)" fill-opacity="1" stroke-width="1.03078" stroke-linecap="round" stroke-linejoin="round" stroke="rgb(0%, 0%, 0%)" stroke-opacity="1" stroke-miterlimit="10" d="M 174.496094 152.320312 C 174.496094 157.277344 167.0625 157.277344 167.0625 152.320312 C 167.0625 147.363281 174.496094 147.363281 174.496094 152.320312 "/>
<path fill="none" stroke-width="2.133957" stroke-linecap="butt" stroke-linejoin="round" stroke="rgb(0%, 0%, 0%)" stroke-opacity="1" stroke-miterlimit="10" d="M 93.902344 72.296875 L 93.902344 72.296875 "/>
<path fill="none" stroke-width="2.133957" stroke-linecap="butt" stroke-linejoin="round" stroke="rgb(0%, 0%, 0%)" stroke-opacity="1" stroke-miterlimit="10" d="M 93.902344 72.296875 L 93.902344 161.601562 "/>
<path fill="none" stroke-width="2.133957" stroke-linecap="butt" stroke-linejoin="round" stroke="rgb(0%, 0%, 0%)" stroke-opacity="1" stroke-miterlimit="10" d="M 93.902344 161.601562 L 93.902344 161.601562 "/>
<path fill="none" stroke-width="2.133957" stroke-linecap="butt" stroke-linejoin="round" stroke="rgb(0%, 0%, 0%)" stroke-opacity="1" stroke-miterlimit="10" d="M 132.339844 23.996094 L 132.339844 23.996094 "/>
<path fill="none" stroke-width="2.133957" stroke-linecap="butt" stroke-linejoin="round" stroke="rgb(0%, 0%, 0%)" stroke-opacity="1" stroke-miterlimit="10" d="M 132.339844 23.996094 L 132.339844 73.046875 "/>
<path fill="none" stroke-width="2.133957" stroke-linecap="butt" stroke-linejoin="round" stroke="rgb(0%, 0%, 0%)" stroke-opacity="1" stroke-miterlimit="10" d="M 132.339844 73.046875 L 132.339844 73.046875 "/>
<path fill="none" stroke-width="2.133957" stroke-linecap="butt" stroke-linejoin="round" stroke="rgb(0%, 0%, 0%)" stroke-opacity="1" stroke-miterlimit="10" d="M 170.78125 119.546875 L 170.78125 119.546875 "/>
<path fill="none" stroke-width="2.133957" stroke-linecap="butt" stroke-linejoin="round" stroke="rgb(0%, 0%, 0%)" stroke-opacity="1" stroke-miterlimit="10" d="M 170.78125 119.546875 L 170.78125 185.09375 "/>
<path fill="none" stroke-width="2.133957" stroke-linecap="butt" stroke-linejoin="round" stroke="rgb(0%, 0%, 0%)" stroke-opacity="1" stroke-miterlimit="10" d="M 170.78125 185.09375 L 170.78125 185.09375 "/>
<path fill="none" stroke-width="1.066978" stroke-linecap="square" stroke-linejoin="round" stroke="rgb(0%, 0%, 0%)" stroke-opacity="1" stroke-miterlimit="10" d="M 70.839844 193.152344 L 70.839844 15.941406 "/>
<g fill="rgb(0%, 0%, 0%)" fill-opacity="1">
<use xlink:href="#glyph-0-0" x="36.746094" y="183.074219"/>
<use xlink:href="#glyph-0-1" x="44.373326" y="183.074219"/>
<use xlink:href="#glyph-0-2" x="48.183594" y="183.074219"/>
<use xlink:href="#glyph-0-3" x="55.810826" y="183.074219"/>
</g>
<g fill="rgb(0%, 0%, 0%)" fill-opacity="1">
<use xlink:href="#glyph-0-0" x="36.746094" y="132.816406"/>
<use xlink:href="#glyph-0-1" x="44.373326" y="132.816406"/>
<use xlink:href="#glyph-0-4" x="48.183594" y="132.816406"/>
<use xlink:href="#glyph-0-0" x="55.810826" y="132.816406"/>
</g>
<g fill="rgb(0%, 0%, 0%)" fill-opacity="1">
<use xlink:href="#glyph-0-0" x="36.746094" y="82.558594"/>
<use xlink:href="#glyph-0-1" x="44.373326" y="82.558594"/>
<use xlink:href="#glyph-0-4" x="48.183594" y="82.558594"/>
<use xlink:href="#glyph-0-3" x="55.810826" y="82.558594"/>
</g>
<g fill="rgb(0%, 0%, 0%)" fill-opacity="1">
<use xlink:href="#glyph-0-0" x="36.746094" y="32.300781"/>
<use xlink:href="#glyph-0-1" x="44.373326" y="32.300781"/>
<use xlink:href="#glyph-0-5" x="48.183594" y="32.300781"/>
<use xlink:href="#glyph-0-0" x="55.810826" y="32.300781"/>
</g>
<path fill="none" stroke-width="1.066978" stroke-linecap="butt" stroke-linejoin="round" stroke="rgb(0%, 0%, 0%)" stroke-opacity="1" stroke-miterlimit="10" d="M 66.851562 177.664062 L 70.839844 177.664062 "/>
<path fill="none" stroke-width="1.066978" stroke-linecap="butt" stroke-linejoin="round" stroke="rgb(0%, 0%, 0%)" stroke-opacity="1" stroke-miterlimit="10" d="M 66.851562 127.40625 L 70.839844 127.40625 "/>
<path fill="none" stroke-width="1.066978" stroke-linecap="butt" stroke-linejoin="round" stroke="rgb(0%, 0%, 0%)" stroke-opacity="1" stroke-miterlimit="10" d="M 66.851562 77.148438 L 70.839844 77.148438 "/>
<path fill="none" stroke-width="1.066978" stroke-linecap="butt" stroke-linejoin="round" stroke="rgb(0%, 0%, 0%)" stroke-opacity="1" stroke-miterlimit="10" d="M 66.851562 26.890625 L 70.839844 26.890625 "/>
<path fill="none" stroke-width="1.066978" stroke-linecap="square" stroke-linejoin="round" stroke="rgb(0%, 0%, 0%)" stroke-opacity="1" stroke-miterlimit="10" d="M 70.839844 193.152344 L 193.84375 193.152344 "/>
<path fill="none" stroke-width="1.066978" stroke-linecap="butt" stroke-linejoin="round" stroke="rgb(0%, 0%, 0%)" stroke-opacity="1" stroke-miterlimit="10" d="M 93.902344 197.136719 L 93.902344 193.152344 "/>
<path fill="none" stroke-width="1.066978" stroke-linecap="butt" stroke-linejoin="round" stroke="rgb(0%, 0%, 0%)" stroke-opacity="1" stroke-miterlimit="10" d="M 132.339844 197.136719 L 132.339844 193.152344 "/>
<path fill="none" stroke-width="1.066978" stroke-linecap="butt" stroke-linejoin="round" stroke="rgb(0%, 0%, 0%)" stroke-opacity="1" stroke-miterlimit="10" d="M 170.78125 197.136719 L 170.78125 193.152344 "/>
<g fill="rgb(0%, 0%, 0%)" fill-opacity="1">
<use xlink:href="#glyph-0-2" x="90.089844" y="211.367188"/>
</g>
<g fill="rgb(0%, 0%, 0%)" fill-opacity="1">
<use xlink:href="#glyph-0-4" x="128.527344" y="211.367188"/>
</g>
<g fill="rgb(0%, 0%, 0%)" fill-opacity="1">
<use xlink:href="#glyph-0-5" x="166.96875" y="211.367188"/>
</g>
<g fill="rgb(0%, 0%, 0%)" fill-opacity="1">
<use xlink:href="#glyph-1-0" x="99.4375" y="231.691406"/>
<use xlink:href="#glyph-1-1" x="110.109375" y="231.691406"/>
<use xlink:href="#glyph-1-2" x="119.007812" y="231.691406"/>
<use xlink:href="#glyph-1-3" x="122.5625" y="231.691406"/>
<use xlink:href="#glyph-1-4" x="131.460938" y="231.691406"/>
<use xlink:href="#glyph-1-5" x="140.359375" y="231.691406"/>
<use xlink:href="#glyph-1-2" x="153.6875" y="231.691406"/>
<use xlink:href="#glyph-1-6" x="157.242188" y="231.691406"/>
</g>
<g fill="rgb(0%, 0%, 0%)" fill-opacity="1">
<use xlink:href="#glyph-2-0" x="28.394531" y="107.210938"/>
</g>
<g clip-path="url(#clip-1)">
<path fill-rule="nonzero" fill="rgb(96.078431%, 96.078431%, 96.078431%)" fill-opacity="1" d="M 257.054688 193.152344 L 380.058594 193.152344 L 380.058594 15.941406 L 257.054688 15.941406 Z M 257.054688 193.152344 "/>
</g>
<path fill-rule="nonzero" fill="rgb(0%, 0%, 0%)" fill-opacity="1" stroke-width="1.03078" stroke-linecap="round" stroke-linejoin="round" stroke="rgb(0%, 0%, 0%)" stroke-opacity="1" stroke-miterlimit="10" d="M 283.835938 130.386719 C 283.835938 135.339844 276.402344 135.339844 276.402344 130.386719 C 276.402344 125.429688 283.835938 125.429688 283.835938 130.386719 "/>
<path fill-rule="nonzero" fill="rgb(0%, 0%, 0%)" fill-opacity="1" stroke-width="1.03078" stroke-linecap="round" stroke-linejoin="round" stroke="rgb(0%, 0%, 0%)" stroke-opacity="1" stroke-miterlimit="10" d="M 322.273438 184.472656 C 322.273438 189.429688 314.839844 189.429688 314.839844 184.472656 C 314.839844 179.519531 322.273438 179.519531 322.273438 184.472656 "/>
<path fill-rule="nonzero" fill="rgb(0%, 0%, 0%)" fill-opacity="1" stroke-width="1.03078" stroke-linecap="round" stroke-linejoin="round" stroke="rgb(0%, 0%, 0%)" stroke-opacity="1" stroke-miterlimit="10" d="M 360.710938 184.800781 C 360.710938 189.757812 353.28125 189.757812 353.28125 184.800781 C 353.28125 179.847656 360.710938 179.847656 360.710938 184.800781 "/>
<path fill="none" stroke-width="2.133957" stroke-linecap="butt" stroke-linejoin="round" stroke="rgb(0%, 0%, 0%)" stroke-opacity="1" stroke-miterlimit="10" d="M 280.117188 23.996094 L 280.117188 23.996094 "/>
<path fill="none" stroke-width="2.133957" stroke-linecap="butt" stroke-linejoin="round" stroke="rgb(0%, 0%, 0%)" stroke-opacity="1" stroke-miterlimit="10" d="M 280.117188 23.996094 L 280.117188 169.238281 "/>
<path fill="none" stroke-width="2.133957" stroke-linecap="butt" stroke-linejoin="round" stroke="rgb(0%, 0%, 0%)" stroke-opacity="1" stroke-miterlimit="10" d="M 280.117188 169.238281 L 280.117188 169.238281 "/>
<path fill="none" stroke-width="2.133957" stroke-linecap="butt" stroke-linejoin="round" stroke="rgb(0%, 0%, 0%)" stroke-opacity="1" stroke-miterlimit="10" d="M 318.558594 183.636719 L 318.558594 183.636719 "/>
<path fill="none" stroke-width="2.133957" stroke-linecap="butt" stroke-linejoin="round" stroke="rgb(0%, 0%, 0%)" stroke-opacity="1" stroke-miterlimit="10" d="M 318.558594 183.636719 L 318.558594 184.882812 "/>
<path fill="none" stroke-width="2.133957" stroke-linecap="butt" stroke-linejoin="round" stroke="rgb(0%, 0%, 0%)" stroke-opacity="1" stroke-miterlimit="10" d="M 318.558594 184.882812 L 318.558594 184.882812 "/>
<path fill="none" stroke-width="2.133957" stroke-linecap="butt" stroke-linejoin="round" stroke="rgb(0%, 0%, 0%)" stroke-opacity="1" stroke-miterlimit="10" d="M 356.996094 184.039062 L 356.996094 184.039062 "/>
<path fill="none" stroke-width="2.133957" stroke-linecap="butt" stroke-linejoin="round" stroke="rgb(0%, 0%, 0%)" stroke-opacity="1" stroke-miterlimit="10" d="M 356.996094 184.039062 L 356.996094 185.09375 "/>
<path fill="none" stroke-width="2.133957" stroke-linecap="butt" stroke-linejoin="round" stroke="rgb(0%, 0%, 0%)" stroke-opacity="1" stroke-miterlimit="10" d="M 356.996094 185.09375 L 356.996094 185.09375 "/>
<path fill="none" stroke-width="1.066978" stroke-linecap="square" stroke-linejoin="round" stroke="rgb(0%, 0%, 0%)" stroke-opacity="1" stroke-miterlimit="10" d="M 257.054688 193.152344 L 257.054688 15.941406 "/>
<g fill="rgb(0%, 0%, 0%)" fill-opacity="1">
<use xlink:href="#glyph-0-0" x="230.585938" y="190.6875"/>
<use xlink:href="#glyph-0-1" x="238.21317" y="190.6875"/>
<use xlink:href="#glyph-0-0" x="242.023438" y="190.6875"/>
</g>
<g fill="rgb(0%, 0%, 0%)" fill-opacity="1">
<use xlink:href="#glyph-0-0" x="230.585938" y="131.980469"/>
<use xlink:href="#glyph-0-1" x="238.21317" y="131.980469"/>
<use xlink:href="#glyph-0-2" x="242.023438" y="131.980469"/>
</g>
<g fill="rgb(0%, 0%, 0%)" fill-opacity="1">
<use xlink:href="#glyph-0-0" x="230.585938" y="73.273438"/>
<use xlink:href="#glyph-0-1" x="238.21317" y="73.273438"/>
<use xlink:href="#glyph-0-4" x="242.023438" y="73.273438"/>
</g>
<path fill="none" stroke-width="1.066978" stroke-linecap="butt" stroke-linejoin="round" stroke="rgb(0%, 0%, 0%)" stroke-opacity="1" stroke-miterlimit="10" d="M 253.070312 185.28125 L 257.054688 185.28125 "/>
<path fill="none" stroke-width="1.066978" stroke-linecap="butt" stroke-linejoin="round" stroke="rgb(0%, 0%, 0%)" stroke-opacity="1" stroke-miterlimit="10" d="M 253.070312 126.574219 L 257.054688 126.574219 "/>
<path fill="none" stroke-width="1.066978" stroke-linecap="butt" stroke-linejoin="round" stroke="rgb(0%, 0%, 0%)" stroke-opacity="1" stroke-miterlimit="10" d="M 253.070312 67.867188 L 257.054688 67.867188 "/>
<path fill="none" stroke-width="1.066978" stroke-linecap="square" stroke-linejoin="round" stroke="rgb(0%, 0%, 0%)" stroke-opacity="1" stroke-miterlimit="10" d="M 257.054688 193.152344 L 380.058594 193.152344 "/>
<path fill="none" stroke-width="1.066978" stroke-linecap="butt" stroke-linejoin="round" stroke="rgb(0%, 0%, 0%)" stroke-opacity="1" stroke-miterlimit="10" d="M 280.117188 197.136719 L 280.117188 193.152344 "/>
<path fill="none" stroke-width="1.066978" stroke-linecap="butt" stroke-linejoin="round" stroke="rgb(0%, 0%, 0%)" stroke-opacity="1" stroke-miterlimit="10" d="M 318.558594 197.136719 L 318.558594 193.152344 "/>
<path fill="none" stroke-width="1.066978" stroke-linecap="butt" stroke-linejoin="round" stroke="rgb(0%, 0%, 0%)" stroke-opacity="1" stroke-miterlimit="10" d="M 356.996094 197.136719 L 356.996094 193.152344 "/>
<g fill="rgb(0%, 0%, 0%)" fill-opacity="1">
<use xlink:href="#glyph-0-2" x="276.304688" y="211.367188"/>
</g>
<g fill="rgb(0%, 0%, 0%)" fill-opacity="1">
<use xlink:href="#glyph-0-4" x="314.746094" y="211.367188"/>
</g>
<g fill="rgb(0%, 0%, 0%)" fill-opacity="1">
<use xlink:href="#glyph-0-5" x="353.183594" y="211.367188"/>
</g>
<g fill="rgb(0%, 0%, 0%)" fill-opacity="1">
<use xlink:href="#glyph-1-0" x="285.65625" y="231.691406"/>
<use xlink:href="#glyph-1-1" x="296.328125" y="231.691406"/>
<use xlink:href="#glyph-1-2" x="305.226562" y="231.691406"/>
<use xlink:href="#glyph-1-3" x="308.78125" y="231.691406"/>
<use xlink:href="#glyph-1-4" x="317.679688" y="231.691406"/>
<use xlink:href="#glyph-1-5" x="326.578125" y="231.691406"/>
<use xlink:href="#glyph-1-2" x="339.90625" y="231.691406"/>
<use xlink:href="#glyph-1-6" x="343.460938" y="231.691406"/>
</g>
<g fill="rgb(0%, 0%, 0%)" fill-opacity="1">
<use xlink:href="#glyph-2-1" x="222.238281" y="112.996094"/>
<use xlink:href="#glyph-2-2" x="222.238281" y="104.996094"/>
</g>
</svg>
