<?xml version="1.0" encoding="UTF-8"?>
<svg xmlns="http://www.w3.org/2000/svg" xmlns:xlink="http://www.w3.org/1999/xlink" width="396pt" height="252pt" viewBox="0 0 396 252">
<defs>
<g>
<g id="glyph-0-0">
<path d="M 0.457031 -3.554688 C 0.457031 -4.871094 0.820312 -5.847656 1.554688 -6.480469 C 2.164062 -7.007812 2.910156 -7.273438 3.789062 -7.273438 C 4.769531 -7.273438 5.566406 -6.953125 6.1875 -6.3125 C 6.808594 -5.671875 7.117188 -4.785156 7.117188 -3.65625 C 7.117188 -2.742188 6.980469 -2.019531 6.707031 -1.496094 C 6.433594 -0.972656 6.03125 -0.566406 5.507812 -0.273438 C 4.984375 0.015625 4.410156 0.160156 3.789062 0.160156 C 2.792969 0.160156 1.988281 -0.160156 1.375 -0.796875 C 0.761719 -1.433594 0.457031 -2.355469 0.457031 -3.554688 M 1.695312 -3.554688 C 1.695312 -2.644531 1.894531 -1.964844 2.289062 -1.511719 C 2.6875 -1.058594 3.1875 -0.832031 3.789062 -0.832031 C 4.386719 -0.832031 4.886719 -1.058594 5.285156 -1.511719 C 5.679688 -1.96875 5.878906 -2.664062 5.878906 -3.597656 C 5.878906 -4.476562 5.679688 -5.140625 5.28125 -5.59375 C 4.878906 -6.046875 4.382812 -6.273438 3.789062 -6.273438 C 3.1875 -6.273438 2.6875 -6.050781 2.289062 -5.597656 C 1.894531 -5.148438 1.695312 -4.464844 1.695312 -3.554688 Z M 1.695312 -3.554688 "/>
</g>
<g id="glyph-0-1">
<path d="M 0.890625 0 L 0.890625 -7.113281 L 1.976562 -7.113281 L 1.976562 -6.035156 C 2.253906 -6.539062 2.507812 -6.871094 2.742188 -7.03125 C 2.976562 -7.191406 3.234375 -7.273438 3.515625 -7.273438 C 3.921875 -7.273438 4.335938 -7.144531 4.753906 -6.882812 L 4.339844 -5.765625 C 4.042969 -5.941406 3.75 -6.027344 3.457031 -6.027344 C 3.191406 -6.027344 2.957031 -5.949219 2.746094 -5.789062 C 2.535156 -5.628906 2.386719 -5.410156 2.296875 -5.128906 C 2.164062 -4.699219 2.097656 -4.230469 2.097656 -3.722656 L 2.097656 0 Z M 0.890625 0 "/>
</g>
<g id="glyph-0-2">
<path d="M 5.519531 0 L 5.519531 -0.898438 C 5.066406 -0.191406 4.402344 0.160156 3.527344 0.160156 C 2.960938 0.160156 2.441406 0.00390625 1.964844 -0.308594 C 1.488281 -0.621094 1.121094 -1.058594 0.859375 -1.617188 C 0.597656 -2.175781 0.46875 -2.820312 0.46875 -3.550781 C 0.46875 -4.257812 0.585938 -4.902344 0.824219 -5.480469 C 1.058594 -6.058594 1.414062 -6.503906 1.886719 -6.808594 C 2.363281 -7.117188 2.890625 -7.273438 3.476562 -7.273438 C 3.902344 -7.273438 4.285156 -7.183594 4.621094 -7 C 4.957031 -6.820312 5.226562 -6.585938 5.4375 -6.292969 L 5.4375 -9.816406 L 6.636719 -9.816406 L 6.636719 0 L 5.519531 0 M 1.707031 -3.550781 C 1.707031 -2.636719 1.898438 -1.957031 2.285156 -1.507812 C 2.667969 -1.054688 3.121094 -0.832031 3.644531 -0.832031 C 4.167969 -0.832031 4.617188 -1.046875 4.984375 -1.476562 C 5.355469 -1.90625 5.539062 -2.566406 5.539062 -3.449219 C 5.539062 -4.421875 5.351562 -5.136719 4.976562 -5.589844 C 4.601562 -6.046875 4.136719 -6.273438 3.589844 -6.273438 C 3.054688 -6.273438 2.605469 -6.054688 2.246094 -5.617188 C 1.886719 -5.179688 1.707031 -4.492188 1.707031 -3.550781 Z M 1.707031 -3.550781 "/>
</g>
<g id="glyph-0-3">
<path d="M 0.910156 -8.429688 L 0.910156 -9.816406 L 2.117188 -9.816406 L 2.117188 -8.429688 L 0.910156 -8.429688 M 0.910156 0 L 0.910156 -7.113281 L 2.117188 -7.113281 L 2.117188 0 Z M 0.910156 0 "/>
</g>
<g id="glyph-0-4">
<path d="M 0.902344 0 L 0.902344 -7.113281 L 1.988281 -7.113281 L 1.988281 -6.101562 C 2.511719 -6.882812 3.265625 -7.273438 4.253906 -7.273438 C 4.679688 -7.273438 5.074219 -7.195312 5.433594 -7.042969 C 5.792969 -6.886719 6.0625 -6.683594 6.242188 -6.433594 C 6.417969 -6.183594 6.542969 -5.886719 6.617188 -5.542969 C 6.660156 -5.320312 6.683594 -4.929688 6.683594 -4.371094 L 6.683594 0 L 5.476562 0 L 5.476562 -4.324219 C 5.476562 -4.816406 5.429688 -5.183594 5.335938 -5.425781 C 5.242188 -5.671875 5.078125 -5.863281 4.839844 -6.011719 C 4.597656 -6.15625 4.320312 -6.226562 3.996094 -6.226562 C 3.484375 -6.226562 3.042969 -6.066406 2.667969 -5.738281 C 2.296875 -5.414062 2.109375 -4.792969 2.109375 -3.882812 L 2.109375 0 Z M 0.902344 0 "/>
</g>
<g id="glyph-0-5">
<path d="M 5.542969 -0.878906 C 5.097656 -0.496094 4.667969 -0.230469 4.253906 -0.0742188 C 3.84375 0.0820312 3.398438 0.160156 2.925781 0.160156 C 2.144531 0.160156 1.542969 -0.03125 1.125 -0.410156 C 0.707031 -0.792969 0.496094 -1.28125 0.496094 -1.875 C 0.496094 -2.222656 0.574219 -2.542969 0.734375 -2.828125 C 0.890625 -3.117188 1.097656 -3.347656 1.355469 -3.523438 C 1.613281 -3.695312 1.902344 -3.828125 2.222656 -3.917969 C 2.460938 -3.980469 2.816406 -4.039062 3.292969 -4.097656 C 4.269531 -4.214844 4.984375 -4.351562 5.445312 -4.511719 C 5.449219 -4.679688 5.449219 -4.785156 5.449219 -4.828125 C 5.449219 -5.320312 5.335938 -5.664062 5.109375 -5.867188 C 4.800781 -6.136719 4.34375 -6.273438 3.738281 -6.273438 C 3.167969 -6.273438 2.75 -6.175781 2.480469 -5.976562 C 2.210938 -5.777344 2.011719 -5.425781 1.882812 -4.921875 L 0.703125 -5.082031 C 0.808594 -5.585938 0.988281 -5.996094 1.230469 -6.304688 C 1.476562 -6.613281 1.832031 -6.855469 2.296875 -7.019531 C 2.761719 -7.1875 3.300781 -7.273438 3.910156 -7.273438 C 4.519531 -7.273438 5.011719 -7.199219 5.390625 -7.058594 C 5.769531 -6.914062 6.050781 -6.734375 6.226562 -6.519531 C 6.40625 -6.300781 6.53125 -6.027344 6.601562 -5.699219 C 6.644531 -5.492188 6.664062 -5.121094 6.664062 -4.585938 L 6.664062 -2.980469 C 6.664062 -1.859375 6.6875 -1.152344 6.738281 -0.855469 C 6.792969 -0.558594 6.894531 -0.273438 7.042969 0 L 5.785156 0 C 5.660156 -0.25 5.582031 -0.542969 5.542969 -0.878906 M 5.445312 -3.570312 C 5.007812 -3.390625 4.351562 -3.238281 3.476562 -3.113281 C 2.980469 -3.042969 2.628906 -2.960938 2.425781 -2.871094 C 2.21875 -2.785156 2.058594 -2.652344 1.949219 -2.480469 C 1.835938 -2.308594 1.78125 -2.117188 1.78125 -1.910156 C 1.78125 -1.585938 1.902344 -1.320312 2.144531 -1.105469 C 2.390625 -0.890625 2.746094 -0.785156 3.214844 -0.785156 C 3.679688 -0.785156 4.089844 -0.886719 4.453125 -1.089844 C 4.816406 -1.292969 5.082031 -1.570312 5.25 -1.921875 C 5.378906 -2.195312 5.445312 -2.597656 5.445312 -3.128906 Z M 5.445312 -3.570312 "/>
</g>
<g id="glyph-0-6">
<path d="M 0.878906 0 L 0.878906 -9.816406 L 2.082031 -9.816406 L 2.082031 0 Z M 0.878906 0 "/>
</g>
<g id="glyph-0-7">
<path d="M 5.109375 0 L 3.902344 0 L 3.902344 -7.679688 C 3.613281 -7.402344 3.234375 -7.128906 2.761719 -6.851562 C 2.292969 -6.574219 1.867188 -6.367188 1.492188 -6.226562 L 1.492188 -7.394531 C 2.167969 -7.710938 2.757812 -8.09375 3.261719 -8.542969 C 3.765625 -8.996094 4.121094 -9.433594 4.332031 -9.855469 L 5.109375 -9.855469 Z M 5.109375 0 "/>
</g>
<g id="glyph-0-8">
<path d="M 6.902344 -1.160156 L 6.902344 0 L 0.414062 0 C 0.40625 -0.289062 0.453125 -0.570312 0.554688 -0.835938 C 0.722656 -1.277344 0.984375 -1.714844 1.347656 -2.144531 C 1.714844 -2.570312 2.238281 -3.066406 2.925781 -3.628906 C 3.992188 -4.503906 4.714844 -5.199219 5.089844 -5.707031 C 5.464844 -6.21875 5.652344 -6.703125 5.652344 -7.160156 C 5.652344 -7.636719 5.480469 -8.039062 5.140625 -8.367188 C 4.796875 -8.695312 4.351562 -8.859375 3.804688 -8.859375 C 3.222656 -8.859375 2.757812 -8.683594 2.410156 -8.335938 C 2.0625 -7.988281 1.886719 -7.507812 1.882812 -6.890625 L 0.644531 -7.019531 C 0.726562 -7.941406 1.046875 -8.644531 1.601562 -9.128906 C 2.152344 -9.613281 2.898438 -9.855469 3.832031 -9.855469 C 4.773438 -9.855469 5.519531 -9.597656 6.066406 -9.074219 C 6.617188 -8.550781 6.890625 -7.902344 6.890625 -7.132812 C 6.890625 -6.738281 6.808594 -6.351562 6.648438 -5.972656 C 6.488281 -5.59375 6.222656 -5.195312 5.847656 -4.773438 C 5.476562 -4.355469 4.855469 -3.777344 3.992188 -3.046875 C 3.269531 -2.441406 2.804688 -2.027344 2.597656 -1.8125 C 2.394531 -1.59375 2.222656 -1.378906 2.089844 -1.160156 Z M 6.902344 -1.160156 "/>
</g>
<g id="glyph-0-9">
<path d="M 0.570312 -4.839844 C 0.570312 -6.003906 0.6875 -6.9375 0.925781 -7.644531 C 1.167969 -8.351562 1.519531 -8.898438 1.992188 -9.28125 C 2.464844 -9.664062 3.054688 -9.855469 3.769531 -9.855469 C 4.296875 -9.855469 4.757812 -9.75 5.15625 -9.539062 C 5.554688 -9.328125 5.882812 -9.019531 6.140625 -8.621094 C 6.398438 -8.222656 6.601562 -7.734375 6.75 -7.160156 C 6.898438 -6.589844 6.972656 -5.816406 6.972656 -4.839844 C 6.972656 -3.691406 6.851562 -2.761719 6.617188 -2.050781 C 6.378906 -1.34375 6.027344 -0.796875 5.554688 -0.410156 C 5.082031 -0.0273438 4.488281 0.167969 3.769531 0.167969 C 2.824219 0.167969 2.082031 -0.171875 1.539062 -0.851562 C 0.894531 -1.667969 0.570312 -2.996094 0.570312 -4.839844 M 1.808594 -4.839844 C 1.808594 -3.230469 1.996094 -2.15625 2.375 -1.625 C 2.75 -1.089844 3.214844 -0.824219 3.769531 -0.824219 C 4.324219 -0.824219 4.789062 -1.089844 5.167969 -1.628906 C 5.542969 -2.164062 5.730469 -3.234375 5.730469 -4.839844 C 5.730469 -6.457031 5.542969 -7.53125 5.167969 -8.0625 C 4.789062 -8.59375 4.320312 -8.859375 3.757812 -8.859375 C 3.203125 -8.859375 2.761719 -8.625 2.429688 -8.15625 C 2.015625 -7.558594 1.808594 -6.453125 1.808594 -4.839844 Z M 1.808594 -4.839844 "/>
</g>
<g id="glyph-0-10">
<path d="M 4.433594 0 L 4.433594 -2.351562 L 0.175781 -2.351562 L 0.175781 -3.457031 L 4.652344 -9.816406 L 5.636719 -9.816406 L 5.636719 -3.457031 L 6.964844 -3.457031 L 6.964844 -2.351562 L 5.636719 -2.351562 L 5.636719 0 L 4.433594 0 M 4.433594 -3.457031 L 4.433594 -7.882812 L 1.359375 -3.457031 Z M 4.433594 -3.457031 "/>
</g>
<g id="glyph-0-11">
<path d="M 0.570312 -2.570312 L 1.835938 -2.679688 C 1.929688 -2.0625 2.144531 -1.597656 2.488281 -1.289062 C 2.828125 -0.980469 3.242188 -0.824219 3.722656 -0.824219 C 4.304688 -0.824219 4.792969 -1.042969 5.195312 -1.480469 C 5.597656 -1.917969 5.800781 -2.496094 5.800781 -3.222656 C 5.800781 -3.910156 5.605469 -4.449219 5.21875 -4.847656 C 4.832031 -5.246094 4.328125 -5.445312 3.703125 -5.445312 C 3.316406 -5.445312 2.964844 -5.355469 2.652344 -5.179688 C 2.339844 -5.003906 2.09375 -4.773438 1.914062 -4.492188 L 0.785156 -4.640625 L 1.734375 -9.683594 L 6.617188 -9.683594 L 6.617188 -8.53125 L 2.699219 -8.53125 L 2.167969 -5.894531 C 2.757812 -6.304688 3.378906 -6.507812 4.023438 -6.507812 C 4.882812 -6.507812 5.605469 -6.210938 6.195312 -5.617188 C 6.785156 -5.023438 7.078125 -4.261719 7.078125 -3.328125 C 7.078125 -2.441406 6.820312 -1.671875 6.300781 -1.023438 C 5.671875 -0.230469 4.8125 0.167969 3.722656 0.167969 C 2.832031 0.167969 2.101562 -0.0820312 1.535156 -0.582031 C 0.972656 -1.082031 0.648438 -1.746094 0.570312 -2.570312 Z M 0.570312 -2.570312 "/>
</g>
<g id="glyph-1-0">
<path d="M 3.359375 0 L 0.203125 -8.296875 L 1.6875 -8.296875 L 3.46875 -3.328125 C 3.660156 -2.792969 3.839844 -2.234375 4 -1.65625 C 4.125 -2.09375 4.300781 -2.621094 4.523438 -3.234375 L 6.367188 -8.296875 L 7.8125 -8.296875 L 4.671875 0 Z M 3.359375 0 "/>
</g>
<g id="glyph-1-1">
<path d="M 6.46875 -1.023438 C 5.949219 -0.582031 5.445312 -0.269531 4.964844 -0.0859375 C 4.484375 0.0976562 3.964844 0.1875 3.414062 0.1875 C 2.503906 0.1875 1.800781 -0.0351562 1.3125 -0.480469 C 0.824219 -0.925781 0.578125 -1.496094 0.578125 -2.1875 C 0.578125 -2.59375 0.671875 -2.964844 0.855469 -3.300781 C 1.039062 -3.636719 1.28125 -3.90625 1.582031 -4.109375 C 1.882812 -4.3125 2.21875 -4.464844 2.59375 -4.570312 C 2.871094 -4.644531 3.285156 -4.714844 3.84375 -4.78125 C 4.980469 -4.917969 5.816406 -5.078125 6.351562 -5.265625 C 6.355469 -5.457031 6.359375 -5.582031 6.359375 -5.632812 C 6.359375 -6.207031 6.226562 -6.609375 5.960938 -6.84375 C 5.601562 -7.160156 5.066406 -7.320312 4.359375 -7.320312 C 3.699219 -7.320312 3.210938 -7.203125 2.894531 -6.972656 C 2.578125 -6.742188 2.347656 -6.332031 2.195312 -5.742188 L 0.820312 -5.929688 C 0.945312 -6.519531 1.152344 -6.992188 1.4375 -7.355469 C 1.722656 -7.71875 2.136719 -7.996094 2.679688 -8.191406 C 3.222656 -8.386719 3.847656 -8.484375 4.5625 -8.484375 C 5.269531 -8.484375 5.847656 -8.402344 6.289062 -8.234375 C 6.730469 -8.066406 7.058594 -7.859375 7.265625 -7.605469 C 7.472656 -7.351562 7.621094 -7.035156 7.703125 -6.648438 C 7.75 -6.410156 7.773438 -5.976562 7.773438 -5.351562 L 7.773438 -3.476562 C 7.773438 -2.167969 7.804688 -1.34375 7.863281 -0.996094 C 7.921875 -0.648438 8.042969 -0.316406 8.21875 0 L 6.75 0 C 6.605469 -0.292969 6.511719 -0.632812 6.46875 -1.023438 M 6.351562 -4.164062 C 5.839844 -3.957031 5.074219 -3.777344 4.054688 -3.632812 C 3.476562 -3.550781 3.066406 -3.457031 2.828125 -3.351562 C 2.589844 -3.246094 2.402344 -3.09375 2.273438 -2.894531 C 2.144531 -2.695312 2.078125 -2.472656 2.078125 -2.226562 C 2.078125 -1.851562 2.21875 -1.539062 2.503906 -1.289062 C 2.789062 -1.039062 3.203125 -0.914062 3.75 -0.914062 C 4.292969 -0.914062 4.773438 -1.03125 5.195312 -1.269531 C 5.617188 -1.507812 5.925781 -1.832031 6.125 -2.242188 C 6.277344 -2.558594 6.351562 -3.027344 6.351562 -3.648438 Z M 6.351562 -4.164062 "/>
</g>
<g id="glyph-1-2">
<path d="M 1.023438 0 L 1.023438 -11.453125 L 2.429688 -11.453125 L 2.429688 0 Z M 1.023438 0 "/>
</g>
<g id="glyph-1-3">
<path d="M 6.492188 0 L 6.492188 -1.21875 C 5.847656 -0.28125 4.96875 0.1875 3.859375 0.1875 C 3.371094 0.1875 2.914062 0.09375 2.488281 -0.09375 C 2.0625 -0.28125 1.75 -0.515625 1.542969 -0.800781 C 1.335938 -1.085938 1.191406 -1.433594 1.109375 -1.84375 C 1.050781 -2.121094 1.023438 -2.558594 1.023438 -3.15625 L 1.023438 -8.296875 L 2.429688 -8.296875 L 2.429688 -3.695312 C 2.429688 -2.960938 2.457031 -2.464844 2.515625 -2.210938 C 2.605469 -1.839844 2.792969 -1.550781 3.078125 -1.339844 C 3.363281 -1.128906 3.71875 -1.023438 4.140625 -1.023438 C 4.5625 -1.023438 4.957031 -1.132812 5.328125 -1.347656 C 5.699219 -1.5625 5.960938 -1.859375 6.113281 -2.230469 C 6.265625 -2.601562 6.34375 -3.144531 6.34375 -3.851562 L 6.34375 -8.296875 L 7.75 -8.296875 L 7.75 0 Z M 6.492188 0 "/>
</g>
<g id="glyph-1-4">
<path d="M 6.734375 -2.671875 L 8.1875 -2.492188 C 7.957031 -1.644531 7.535156 -0.984375 6.914062 -0.515625 C 6.292969 -0.046875 5.503906 0.1875 4.539062 0.1875 C 3.324219 0.1875 2.363281 -0.1875 1.652344 -0.933594 C 0.941406 -1.679688 0.585938 -2.730469 0.585938 -4.078125 C 0.585938 -5.472656 0.945312 -6.558594 1.664062 -7.328125 C 2.382812 -8.097656 3.316406 -8.484375 4.460938 -8.484375 C 5.570312 -8.484375 6.476562 -8.105469 7.179688 -7.351562 C 7.882812 -6.597656 8.234375 -5.535156 8.234375 -4.164062 C 8.234375 -4.082031 8.230469 -3.957031 8.226562 -3.789062 L 2.039062 -3.789062 C 2.089844 -2.878906 2.347656 -2.179688 2.8125 -1.695312 C 3.277344 -1.210938 3.855469 -0.96875 4.546875 -0.96875 C 5.0625 -0.96875 5.503906 -1.105469 5.867188 -1.375 C 6.230469 -1.644531 6.519531 -2.078125 6.734375 -2.671875 M 2.117188 -4.945312 L 6.75 -4.945312 C 6.6875 -5.644531 6.511719 -6.167969 6.21875 -6.515625 C 5.769531 -7.058594 5.191406 -7.328125 4.476562 -7.328125 C 3.832031 -7.328125 3.289062 -7.113281 2.847656 -6.679688 C 2.40625 -6.246094 2.164062 -5.667969 2.117188 -4.945312 Z M 2.117188 -4.945312 "/>
</g>
<g id="glyph-2-0">
<path d="M -3.039062 -6.46875 L -2.859375 -7.851562 C -1.90625 -7.699219 -1.160156 -7.3125 -0.621094 -6.691406 C -0.0820312 -6.070312 0.1875 -5.304688 0.1875 -4.398438 C 0.1875 -3.261719 -0.183594 -2.351562 -0.925781 -1.660156 C -1.667969 -0.96875 -2.730469 -0.625 -4.117188 -0.625 C -5.011719 -0.625 -5.796875 -0.773438 -6.46875 -1.070312 C -7.140625 -1.367188 -7.644531 -1.820312 -7.980469 -2.425781 C -8.316406 -3.03125 -8.484375 -3.691406 -8.484375 -4.40625 C -8.484375 -5.308594 -8.257812 -6.042969 -7.800781 -6.617188 C -7.34375 -7.191406 -6.699219 -7.558594 -5.859375 -7.71875 L -5.648438 -6.351562 C -6.207031 -6.222656 -6.625 -5.992188 -6.90625 -5.660156 C -7.1875 -5.328125 -7.328125 -4.929688 -7.328125 -4.460938 C -7.328125 -3.753906 -7.074219 -3.175781 -6.566406 -2.734375 C -6.058594 -2.292969 -5.253906 -2.070312 -4.15625 -2.070312 C -3.042969 -2.070312 -2.230469 -2.285156 -1.726562 -2.710938 C -1.222656 -3.136719 -0.96875 -3.695312 -0.96875 -4.382812 C -0.96875 -4.933594 -1.136719 -5.394531 -1.476562 -5.765625 C -1.816406 -6.136719 -2.335938 -6.371094 -3.039062 -6.46875 Z M -3.039062 -6.46875 "/>
</g>
<g id="glyph-2-1">
<path d="M -4.148438 -0.53125 C -5.683594 -0.53125 -6.824219 -0.957031 -7.5625 -1.8125 C -8.175781 -2.527344 -8.484375 -3.394531 -8.484375 -4.421875 C -8.484375 -5.5625 -8.109375 -6.496094 -7.363281 -7.21875 C -6.617188 -7.941406 -5.582031 -8.304688 -4.265625 -8.304688 C -3.199219 -8.304688 -2.359375 -8.144531 -1.746094 -7.824219 C -1.132812 -7.503906 -0.660156 -7.039062 -0.320312 -6.425781 C 0.0195312 -5.8125 0.1875 -5.144531 0.1875 -4.421875 C 0.1875 -3.261719 -0.183594 -2.320312 -0.929688 -1.605469 C -1.675781 -0.890625 -2.746094 -0.53125 -4.148438 -0.53125 M -4.148438 -1.976562 C -3.085938 -1.976562 -2.289062 -2.207031 -1.761719 -2.671875 C -1.234375 -3.136719 -0.96875 -3.71875 -0.96875 -4.421875 C -0.96875 -5.121094 -1.234375 -5.699219 -1.765625 -6.164062 C -2.296875 -6.628906 -3.105469 -6.859375 -4.195312 -6.859375 C -5.222656 -6.859375 -6 -6.625 -6.527344 -6.160156 C -7.054688 -5.695312 -7.320312 -5.113281 -7.320312 -4.421875 C -7.320312 -3.71875 -7.058594 -3.136719 -6.53125 -2.671875 C -6.003906 -2.207031 -5.210938 -1.976562 -4.148438 -1.976562 Z M -4.148438 -1.976562 "/>
</g>
<g id="glyph-2-2">
<path d="M 0 -6.492188 L -1.21875 -6.492188 C -0.28125 -5.847656 0.1875 -4.96875 0.1875 -3.859375 C 0.1875 -3.371094 0.09375 -2.914062 -0.09375 -2.488281 C -0.28125 -2.0625 -0.515625 -1.75 -0.800781 -1.542969 C -1.085938 -1.335938 -1.433594 -1.191406 -1.84375 -1.109375 C -2.121094 -1.050781 -2.558594 -1.023438 -3.15625 -1.023438 L -8.296875 -1.023438 L -8.296875 -2.429688 L -3.695312 -2.429688 C -2.960938 -2.429688 -2.464844 -2.457031 -2.210938 -2.515625 C -1.839844 -2.605469 -1.550781 -2.792969 -1.339844 -3.078125 C -1.128906 -3.363281 -1.023438 -3.71875 -1.023438 -4.140625 C -1.023438 -4.5625 -1.132812 -4.957031 -1.347656 -5.328125 C -1.5625 -5.699219 -1.859375 -5.960938 -2.230469 -6.113281 C -2.601562 -6.265625 -3.144531 -6.34375 -3.851562 -6.34375 L -8.296875 -6.34375 L -8.296875 -7.75 L 0 -7.75 Z M 0 -6.492188 "/>
</g>
<g id="glyph-2-3">
<path d="M 0 -1.054688 L -8.296875 -1.054688 L -8.296875 -2.320312 L -7.117188 -2.320312 C -8.027344 -2.929688 -8.484375 -3.808594 -8.484375 -4.960938 C -8.484375 -5.460938 -8.394531 -5.921875 -8.214844 -6.339844 C -8.035156 -6.757812 -7.800781 -7.074219 -7.507812 -7.28125 C -7.214844 -7.488281 -6.871094 -7.636719 -6.46875 -7.71875 C -6.207031 -7.769531 -5.753906 -7.796875 -5.101562 -7.796875 L 0 -7.796875 L 0 -6.390625 L -5.046875 -6.390625 C -5.621094 -6.390625 -6.046875 -6.335938 -6.332031 -6.226562 C -6.617188 -6.117188 -6.84375 -5.921875 -7.011719 -5.644531 C -7.179688 -5.367188 -7.265625 -5.039062 -7.265625 -4.664062 C -7.265625 -4.066406 -7.074219 -3.546875 -6.695312 -3.113281 C -6.316406 -2.679688 -5.59375 -2.460938 -4.53125 -2.460938 L 0 -2.460938 Z M 0 -1.054688 "/>
</g>
<g id="glyph-2-4">
<path d="M -1.257812 -4.125 L -0.015625 -4.328125 C 0.0664062 -3.933594 0.109375 -3.578125 0.109375 -3.265625 C 0.109375 -2.753906 0.0273438 -2.359375 -0.132812 -2.078125 C -0.292969 -1.796875 -0.507812 -1.597656 -0.769531 -1.484375 C -1.03125 -1.371094 -1.585938 -1.3125 -2.429688 -1.3125 L -7.203125 -1.3125 L -7.203125 -0.28125 L -8.296875 -0.28125 L -8.296875 -1.3125 L -10.351562 -1.3125 L -11.195312 -2.710938 L -8.296875 -2.710938 L -8.296875 -4.125 L -7.203125 -4.125 L -7.203125 -2.710938 L -2.351562 -2.710938 C -1.949219 -2.710938 -1.691406 -2.734375 -1.578125 -2.785156 C -1.464844 -2.835938 -1.371094 -2.914062 -1.304688 -3.027344 C -1.238281 -3.140625 -1.203125 -3.300781 -1.203125 -3.507812 C -1.203125 -3.664062 -1.222656 -3.871094 -1.257812 -4.125 Z M -1.257812 -4.125 "/>
</g>
</g>
<clipPath id="clip-0">
<path clip-rule="nonzero" d="M 51.429688 30.644531 L 215.746094 30.644531 L 215.746094 201.121094 L 51.429688 201.121094 Z M 51.429688 30.644531 "/>
</clipPath>
<clipPath id="clip-1">
<path clip-rule="nonzero" d="M 223.714844 30.644531 L 388.03125 30.644531 L 388.03125 201.121094 L 223.714844 201.121094 Z M 223.714844 30.644531 "/>
</clipPath>
<clipPath id="clip-2">
<path clip-rule="nonzero" d="M 51.429688 7.96875 L 215.746094 7.96875 L 215.746094 30.640625 L 51.429688 30.640625 Z M 51.429688 7.96875 "/>
</clipPath>
<clipPath id="clip-3">
<path clip-rule="nonzero" d="M 223.714844 7.96875 L 388.03125 7.96875 L 388.03125 30.640625 L 223.714844 30.640625 Z M 223.714844 7.96875 "/>
</clipPath>
</defs>
<rect x="-39.6" y="-25.2" width="475.2" height="302.4" fill="rgb(100%, 100%, 100%)" fill-opacity="1"/>
<g clip-path="url(#clip-0)">
<path fill-rule="nonzero" fill="rgb(96.078431%, 96.078431%, 96.078431%)" fill-opacity="1" d="M 51.429688 201.121094 L 215.746094 201.121094 L 215.746094 30.644531 L 51.429688 30.644531 Z M 51.429688 201.121094 "/>
</g>
<path fill="none" stroke-width="1.551969" stroke-linecap="butt" stroke-linejoin="miter" stroke="rgb(100%, 100%, 100%)" stroke-opacity="1" stroke-miterlimit="10" d="M 58.898438 193.371094 L 83.792969 193.371094 Z M 58.898438 193.371094 "/>
<path fill-rule="nonzero" fill="rgb(20%, 60%, 40%)" fill-opacity="1" stroke-width="1.551969" stroke-linecap="butt" stroke-linejoin="miter" stroke="rgb(100%, 100%, 100%)" stroke-opacity="1" stroke-miterlimit="10" d="M 83.796875 193.371094 L 108.691406 193.371094 L 108.691406 171.230469 L 83.796875 171.230469 Z M 83.796875 193.371094 "/>
<path fill-rule="nonzero" fill="rgb(20%, 60%, 40%)" fill-opacity="1" stroke-width="1.551969" stroke-linecap="butt" stroke-linejoin="miter" stroke="rgb(100%, 100%, 100%)" stroke-opacity="1" stroke-miterlimit="10" d="M 108.691406 193.371094 L 133.585938 193.371094 L 133.585938 171.230469 L 108.691406 171.230469 Z M 108.691406 193.371094 "/>
<path fill-rule="nonzero" fill="rgb(20%, 60%, 40%)" fill-opacity="1" stroke-width="1.551969" stroke-linecap="butt" stroke-linejoin="miter" stroke="rgb(100%, 100%, 100%)" stroke-opacity="1" stroke-miterlimit="10" d="M 133.589844 193.371094 L 158.484375 193.371094 L 158.484375 115.882812 L 133.589844 115.882812 Z M 133.589844 193.371094 "/>
<path fill-rule="nonzero" fill="rgb(20%, 60%, 40%)" fill-opacity="1" stroke-width="1.551969" stroke-linecap="butt" stroke-linejoin="miter" stroke="rgb(100%, 100%, 100%)" stroke-opacity="1" stroke-miterlimit="10" d="M 158.484375 193.371094 L 183.378906 193.371094 L 183.378906 104.8125 L 158.484375 104.8125 Z M 158.484375 193.371094 "/>
<path fill-rule="nonzero" fill="rgb(20%, 60%, 40%)" fill-opacity="1" stroke-width="1.551969" stroke-linecap="butt" stroke-linejoin="miter" stroke="rgb(100%, 100%, 100%)" stroke-opacity="1" stroke-miterlimit="10" d="M 183.378906 193.371094 L 208.273438 193.371094 L 208.273438 71.601562 L 183.378906 71.601562 Z M 183.378906 193.371094 "/>
<g clip-path="url(#clip-1)">
<path fill-rule="nonzero" fill="rgb(96.078431%, 96.078431%, 96.078431%)" fill-opacity="1" d="M 223.714844 201.121094 L 388.03125 201.121094 L 388.03125 30.644531 L 223.714844 30.644531 Z M 223.714844 201.121094 "/>
</g>
<path fill-rule="nonzero" fill="rgb(20%, 60%, 40%)" fill-opacity="1" stroke-width="1.551969" stroke-linecap="butt" stroke-linejoin="miter" stroke="rgb(100%, 100%, 100%)" stroke-opacity="1" stroke-miterlimit="10" d="M 231.183594 193.371094 L 256.078125 193.371094 L 256.078125 93.742188 L 231.183594 93.742188 Z M 231.183594 193.371094 "/>
<path fill-rule="nonzero" fill="rgb(20%, 60%, 40%)" fill-opacity="1" stroke-width="1.551969" stroke-linecap="butt" stroke-linejoin="miter" stroke="rgb(100%, 100%, 100%)" stroke-opacity="1" stroke-miterlimit="10" d="M 256.082031 193.371094 L 280.976562 193.371094 L 280.976562 38.390625 L 256.082031 38.390625 Z M 256.082031 193.371094 "/>
<path fill-rule="nonzero" fill="rgb(20%, 60%, 40%)" fill-opacity="1" stroke-width="1.551969" stroke-linecap="butt" stroke-linejoin="miter" stroke="rgb(100%, 100%, 100%)" stroke-opacity="1" stroke-miterlimit="10" d="M 280.976562 193.371094 L 305.871094 193.371094 L 305.871094 149.089844 L 280.976562 149.089844 Z M 280.976562 193.371094 "/>
<path fill-rule="nonzero" fill="rgb(20%, 60%, 40%)" fill-opacity="1" stroke-width="1.551969" stroke-linecap="butt" stroke-linejoin="miter" stroke="rgb(100%, 100%, 100%)" stroke-opacity="1" stroke-miterlimit="10" d="M 305.871094 193.371094 L 330.765625 193.371094 L 330.765625 171.230469 L 305.871094 171.230469 Z M 305.871094 193.371094 "/>
<path fill-rule="nonzero" fill="rgb(20%, 60%, 40%)" fill-opacity="1" stroke-width="1.551969" stroke-linecap="butt" stroke-linejoin="miter" stroke="rgb(100%, 100%, 100%)" stroke-opacity="1" stroke-miterlimit="10" d="M 330.769531 193.371094 L 355.664062 193.371094 L 355.664062 182.300781 L 330.769531 182.300781 Z M 330.769531 193.371094 "/>
<path fill="none" stroke-width="1.551969" stroke-linecap="butt" stroke-linejoin="miter" stroke="rgb(100%, 100%, 100%)" stroke-opacity="1" stroke-miterlimit="10" d="M 355.664062 193.371094 L 380.558594 193.371094 Z M 355.664062 193.371094 "/>
<g clip-path="url(#clip-2)">
<path fill-rule="nonzero" fill="rgb(100%, 100%, 100%)" fill-opacity="1" stroke-width="1.066978" stroke-linecap="round" stroke-linejoin="round" stroke="rgb(100%, 100%, 100%)" stroke-opacity="1" stroke-miterlimit="10" d="M 51.429688 30.644531 L 215.746094 30.644531 L 215.746094 7.972656 L 51.429688 7.972656 Z M 51.429688 30.644531 "/>
</g>
<g fill="rgb(0%, 0%, 0%)" fill-opacity="1">
<use xlink:href="#glyph-0-0" x="109.191406" y="24.714844"/>
<use xlink:href="#glyph-0-1" x="116.818638" y="24.714844"/>
<use xlink:href="#glyph-0-2" x="121.385603" y="24.714844"/>
<use xlink:href="#glyph-0-3" x="129.012835" y="24.714844"/>
<use xlink:href="#glyph-0-4" x="132.05971" y="24.714844"/>
<use xlink:href="#glyph-0-5" x="139.686942" y="24.714844"/>
<use xlink:href="#glyph-0-6" x="147.314174" y="24.714844"/>
<use xlink:href="#glyph-0-7" x="150.361049" y="24.714844"/>
</g>
<g clip-path="url(#clip-3)">
<path fill-rule="nonzero" fill="rgb(100%, 100%, 100%)" fill-opacity="1" stroke-width="1.066978" stroke-linecap="round" stroke-linejoin="round" stroke="rgb(100%, 100%, 100%)" stroke-opacity="1" stroke-miterlimit="10" d="M 223.714844 30.644531 L 388.03125 30.644531 L 388.03125 7.972656 L 223.714844 7.972656 Z M 223.714844 30.644531 "/>
</g>
<g fill="rgb(0%, 0%, 0%)" fill-opacity="1">
<use xlink:href="#glyph-0-0" x="281.472656" y="24.714844"/>
<use xlink:href="#glyph-0-1" x="289.099888" y="24.714844"/>
<use xlink:href="#glyph-0-2" x="293.666853" y="24.714844"/>
<use xlink:href="#glyph-0-3" x="301.294085" y="24.714844"/>
<use xlink:href="#glyph-0-4" x="304.34096" y="24.714844"/>
<use xlink:href="#glyph-0-5" x="311.968192" y="24.714844"/>
<use xlink:href="#glyph-0-6" x="319.595424" y="24.714844"/>
<use xlink:href="#glyph-0-8" x="322.642299" y="24.714844"/>
</g>
<path fill="none" stroke-width="1.066978" stroke-linecap="square" stroke-linejoin="round" stroke="rgb(0%, 0%, 0%)" stroke-opacity="1" stroke-miterlimit="10" d="M 51.429688 201.121094 L 215.746094 201.121094 "/>
<path fill="none" stroke-width="1.066978" stroke-linecap="butt" stroke-linejoin="round" stroke="rgb(0%, 0%, 0%)" stroke-opacity="1" stroke-miterlimit="10" d="M 71.347656 205.105469 L 71.347656 201.121094 "/>
<path fill="none" stroke-width="1.066978" stroke-linecap="butt" stroke-linejoin="round" stroke="rgb(0%, 0%, 0%)" stroke-opacity="1" stroke-miterlimit="10" d="M 121.140625 205.105469 L 121.140625 201.121094 "/>
<path fill="none" stroke-width="1.066978" stroke-linecap="butt" stroke-linejoin="round" stroke="rgb(0%, 0%, 0%)" stroke-opacity="1" stroke-miterlimit="10" d="M 170.933594 205.105469 L 170.933594 201.121094 "/>
<g fill="rgb(0%, 0%, 0%)" fill-opacity="1">
<use xlink:href="#glyph-0-9" x="67.535156" y="219.339844"/>
</g>
<g fill="rgb(0%, 0%, 0%)" fill-opacity="1">
<use xlink:href="#glyph-0-8" x="117.328125" y="219.339844"/>
</g>
<g fill="rgb(0%, 0%, 0%)" fill-opacity="1">
<use xlink:href="#glyph-0-10" x="167.121094" y="219.339844"/>
</g>
<path fill="none" stroke-width="1.066978" stroke-linecap="square" stroke-linejoin="round" stroke="rgb(0%, 0%, 0%)" stroke-opacity="1" stroke-miterlimit="10" d="M 223.714844 201.121094 L 388.03125 201.121094 "/>
<path fill="none" stroke-width="1.066978" stroke-linecap="butt" stroke-linejoin="round" stroke="rgb(0%, 0%, 0%)" stroke-opacity="1" stroke-miterlimit="10" d="M 243.632812 205.105469 L 243.632812 201.121094 "/>
<path fill="none" stroke-width="1.066978" stroke-linecap="butt" stroke-linejoin="round" stroke="rgb(0%, 0%, 0%)" stroke-opacity="1" stroke-miterlimit="10" d="M 293.425781 205.105469 L 293.425781 201.121094 "/>
<path fill="none" stroke-width="1.066978" stroke-linecap="butt" stroke-linejoin="round" stroke="rgb(0%, 0%, 0%)" stroke-opacity="1" stroke-miterlimit="10" d="M 343.21875 205.105469 L 343.21875 201.121094 "/>
<g fill="rgb(0%, 0%, 0%)" fill-opacity="1">
<use xlink:href="#glyph-0-9" x="239.820312" y="219.339844"/>
</g>
<g fill="rgb(0%, 0%, 0%)" fill-opacity="1">
<use xlink:href="#glyph-0-8" x="289.613281" y="219.339844"/>
</g>
<g fill="rgb(0%, 0%, 0%)" fill-opacity="1">
<use xlink:href="#glyph-0-10" x="339.40625" y="219.339844"/>
</g>
<path fill="none" stroke-width="1.066978" stroke-linecap="square" stroke-linejoin="round" stroke="rgb(0%, 0%, 0%)" stroke-opacity="1" stroke-miterlimit="10" d="M 51.429688 201.121094 L 51.429688 30.644531 "/>
<g fill="rgb(0%, 0%, 0%)" fill-opacity="1">
<use xlink:href="#glyph-0-9" x="36.402344" y="198.78125"/>
</g>
<g fill="rgb(0%, 0%, 0%)" fill-opacity="1">
<use xlink:href="#glyph-0-11" x="36.402344" y="143.429688"/>
</g>
<g fill="rgb(0%, 0%, 0%)" fill-opacity="1">
<use xlink:href="#glyph-0-7" x="28.777344" y="88.082031"/>
<use xlink:href="#glyph-0-9" x="36.404576" y="88.082031"/>
</g>
<path fill="none" stroke-width="1.066978" stroke-linecap="butt" stroke-linejoin="round" stroke="rgb(0%, 0%, 0%)" stroke-opacity="1" stroke-miterlimit="10" d="M 47.445312 193.371094 L 51.429688 193.371094 "/>
<path fill="none" stroke-width="1.066978" stroke-linecap="butt" stroke-linejoin="round" stroke="rgb(0%, 0%, 0%)" stroke-opacity="1" stroke-miterlimit="10" d="M 47.445312 138.023438 L 51.429688 138.023438 "/>
<path fill="none" stroke-width="1.066978" stroke-linecap="butt" stroke-linejoin="round" stroke="rgb(0%, 0%, 0%)" stroke-opacity="1" stroke-miterlimit="10" d="M 47.445312 82.671875 L 51.429688 82.671875 "/>
<g fill="rgb(0%, 0%, 0%)" fill-opacity="1">
<use xlink:href="#glyph-1-0" x="200.605469" y="239.664062"/>
<use xlink:href="#glyph-1-1" x="208.605469" y="239.664062"/>
<use xlink:href="#glyph-1-2" x="217.503906" y="239.664062"/>
<use xlink:href="#glyph-1-3" x="221.058594" y="239.664062"/>
<use xlink:href="#glyph-1-4" x="229.957031" y="239.664062"/>
</g>
<g fill="rgb(0%, 0%, 0%)" fill-opacity="1">
<use xlink:href="#glyph-2-0" x="20.421875" y="135.453125"/>
<use xlink:href="#glyph-2-1" x="20.421875" y="127.453125"/>
<use xlink:href="#glyph-2-2" x="20.421875" y="118.554688"/>
<use xlink:href="#glyph-2-3" x="20.421875" y="109.65625"/>
<use xlink:href="#glyph-2-4" x="20.421875" y="100.757812"/>
</g>
</svg>
